$MeshFormat
2.2 0 8
$EndMeshFormat
$Nodes
142
1 0 0 0
2 1 0 0
3 1 1 0
4 0 1 0
5 0.09999999999981467 0 0
6 0.1999999999995579 0 0
7 0.2999999999992664 0 0
8 0.3999999999989749 0 0
9 0.4999999999986943 0 0
10 0.5999999999989468 0 0
11 0.69999999999921 0 0
12 0.7999999999994734 0 0
13 0.8999999999997368 0 0
14 1 0.09999999999981467 0
15 1 0.1999999999995579 0
16 1 0.2999999999992664 0
17 1 0.3999999999989749 0
18 1 0.4999999999986943 0
19 1 0.5999999999989468 0
20 1 0.69999999999921 0
21 1 0.7999999999994734 0
22 1 0.8999999999997368 0
23 0.8999999999995836 1 0
24 0.7999999999999998 1 0
25 0.7000000000006934 1 0
26 0.6000000000013869 1 0
27 0.5000000000020587 1 0
28 0.4000000000016644 1 0
29 0.3000000000012483 1 0
30 0.2000000000008322 1 0
31 0.100000000000416 1 0
32 0 0.8999999999995836 0
33 0 0.7999999999999998 0
34 0 0.7000000000006934 0
35 0 0.6000000000013869 0
36 0 0.5000000000020587 0
37 0 0.4000000000016644 0
38 0 0.3000000000012483 0
39 0 0.2000000000008322 0
40 0 0.100000000000416 0
41 0.4500000000018615 0.9133974596216763 0
42 0.09236792741065181 0.4605742807381246 0
43 0.5499999999988205 0.08660254037843171 0
44 0.9152217186777625 0.5468402906274979 0
45 0.6500000000008002 0.9133974596219514 0
46 0.08885430207258675 0.6509201999022066 0
47 0.9133974596218086 0.3499999999991206 0
48 0.3475303635242558 0.08190748804974743 0
49 0.9103703875043379 0.7586725654707323 0
50 0.250817301762687 0.9138693290130382 0
51 0.7459788032314767 0.07959225689678907 0
52 0.0866025403788042 0.2500000000010402 0
53 0.09056972474474825 0.8408174380938657 0
54 0.8495762630717529 0.9153227954948184 0
55 0.1504237369277891 0.08467720450543256 0
56 0.9170502595852439 0.150593231699023 0
57 0.3501362169619657 0.9134761045201358 0
58 0.4000227028286921 0.8268080267265111 0
59 0.5000037838059685 0.8267971038241898 0
60 0.4500044144404199 0.7401949275428534 0
61 0.550001366375149 0.7401931677420539 0
62 0.5000009634704368 0.6535903947466357 0
63 0.3996660322685221 0.6539624100660313 0
64 0.4492890262150227 0.5674132367139484 0
65 0.549881664948517 0.5670583805869823 0
66 0.4998617818618988 0.4804675945786104 0
67 0.5999572411359402 0.4804104109524936 0
68 0.3992029949383354 0.4808333042715237 0
69 0.4498441294682427 0.3938707812513982 0
70 0.3508014145113768 0.3944261231392701 0
71 0.649973151014685 0.5670034207262453 0
72 0.7044542185661746 0.4836609274158983 0
73 0.650735243284629 0.3943325211712261 0
74 0.2989417123120321 0.4807819782420577 0
75 0.400107590665014 0.3073017552560426 0
76 0.300000000002935 0.3071796769753505 0
77 0.4999919533568913 0.3072147840053003 0
78 0.4500000000024988 0.2205771365973901 0
79 0.7516124797967332 0.5701303236396067 0
80 0.7002642718023646 0.6541163631790494 0
81 0.753535810939751 0.3987254670893935 0
82 0.7000000000012393 0.307179676975659 0
83 0.8000000000003894 0.6535898384882735 0
84 0.7471434102059785 0.7386054505286099 0
85 0.5500000000021429 0.22057713659755 0
86 0.8109810542586346 0.3047536098154719 0
87 0.7487737367126566 0.2215627586077871 0
88 0.3001627035935243 0.8268888562051476 0
89 0.1994089234458852 0.8296981761685946 0
90 0.2499286045088535 0.7410578833522043 0
91 0.1494939110587455 0.7431601482469269 0
92 0.1967429917984385 0.6534863612147316 0
93 0.1475064708395241 0.5596891567283324 0
94 0.2461396475416222 0.5647585225755519 0
95 0.2006125504552574 0.4738835212418007 0
96 0.1629581819743507 0.380388647536347 0
97 0.3488732355465849 0.5672558538991079 0
98 0.6000008583640309 0.8267954148199792 0
99 0.8994183955992584 0.6528983889292933 0
100 0.6499999999991334 0.08660254037864022 0
101 0.9157740970141777 0.4494733817703521 0
102 0.8167956118738326 0.4899817334731329 0
103 0.4498499977837828 0.08393456559302379 0
104 0.5500007736960177 0.9133979063146327 0
105 0.2471893802660857 0.08407329706072988 0
106 0.1856343100128922 0.1794039491425674 0
107 0.9132469817449558 0.2508911402520001 0
108 0.6000202362686525 0.6536923509744806 0
109 0.7499293771789072 0.9137183489341748 0
110 0.3492006954957161 0.2288327370242559 0
111 0.5500650581848796 0.3939126281557886 0
112 0.6495716905027348 0.7400329444146923 0
113 0.6994408893754027 0.8265574229272842 0
114 0.6001320424719077 0.3072989805838411 0
115 0.815040741820152 0.8183024367054095 0
116 0.650000000001664 0.2205771365975231 0
117 0.3499640762739978 0.7407829625697138 0
118 0.2985524313230031 0.6535506656128902 0
119 0.1530678781041703 0.9178724624824317 0
120 0.9167537064254059 0.8508718537559959 0
121 0.08296629115975593 0.1498875452108657 0
122 0.1890575670468492 0.2940842362157938 0
123 0.8440933898604552 0.09385434397709341 0
124 0.2503952377171335 0.3884573638917699 0
125 0.07972803913531332 0.3493512757062616 0
126 0.8380531170040478 0.1999999999995607 0
127 0.8406928938275642 0.399278999198198 0
128 0.2898261153518075 0.1633999302292046 0
129 0.0657835875752161 0.7469795572487384 0
130 0.6999999999992164 0.1535898384871373 0
131 0.5999999999988372 0.153589838486751 0
132 0.4999999999989005 0.1535898384865978 0
133 0.3977345286928269 0.1553736159967032 0
134 0.8325961894321566 0.7301442841501419 0
135 0.06525626353167122 0.5500000000017229 0
136 0.8366096411895954 0.5826881150315608 0
137 0.2613872612265494 0.2359890604552144 0
138 0.926794919243098 0.9267949192431389 0
139 0.07320508075687601 0.9267949192431241 0
140 0.9267949192432314 0.07320508075664824 0
141 0.07320508075662228 0.07320508075678341 0
142 0.7753798093615706 0.1497198395936735 0
$EndNodes
$Elements
282
1 1 2 7 1 1 5
2 1 2 7 1 5 6
3 1 2 7 1 6 7
4 1 2 7 1 7 8
5 1 2 7 1 8 9
6 1 2 7 1 9 10
7 1 2 7 1 10 11
8 1 2 7 1 11 12
9 1 2 7 1 12 13
10 1 2 7 1 13 2
11 1 2 8 2 2 14
12 1 2 8 2 14 15
13 1 2 8 2 15 16
14 1 2 8 2 16 17
15 1 2 8 2 17 18
16 1 2 8 2 18 19
17 1 2 8 2 19 20
18 1 2 8 2 20 21
19 1 2 8 2 21 22
20 1 2 8 2 22 3
21 1 2 9 3 3 23
22 1 2 9 3 23 24
23 1 2 9 3 24 25
24 1 2 9 3 25 26
25 1 2 9 3 26 27
26 1 2 9 3 27 28
27 1 2 9 3 28 29
28 1 2 9 3 29 30
29 1 2 9 3 30 31
30 1 2 9 3 31 4
31 1 2 10 4 4 32
32 1 2 10 4 32 33
33 1 2 10 4 33 34
34 1 2 10 4 34 35
35 1 2 10 4 35 36
36 1 2 10 4 36 37
37 1 2 10 4 37 38
38 1 2 10 4 38 39
39 1 2 10 4 39 40
40 1 2 10 4 40 1
41 2 2 11 6 72 81 102
42 2 2 11 6 122 76 124
43 2 2 11 6 115 49 120
44 2 2 11 6 106 52 121
45 2 2 11 6 52 106 122
46 2 2 11 6 49 115 134
47 2 2 11 6 96 122 124
48 2 2 11 6 47 86 107
49 2 2 11 6 52 122 125
50 2 2 11 6 93 42 95
51 2 2 11 6 89 53 91
52 2 2 11 6 122 96 125
53 2 2 11 6 102 81 127
54 2 2 11 6 107 86 126
55 2 2 11 6 79 72 102
56 2 2 11 6 42 93 135
57 2 2 11 6 91 53 129
58 2 2 11 6 91 46 92
59 2 2 11 6 92 46 93
60 2 2 11 6 86 47 127
61 2 2 11 6 95 42 96
62 2 2 11 6 54 115 120
63 2 2 11 6 55 106 121
64 2 2 11 6 83 99 134
65 2 2 11 6 53 89 119
66 2 2 11 6 123 56 126
67 2 2 11 6 86 87 126
68 2 2 11 6 128 48 133
69 2 2 11 6 68 64 97
70 2 2 11 6 92 94 118
71 2 2 11 6 99 83 136
72 2 2 11 6 74 94 95
73 2 2 11 6 99 49 134
74 2 2 11 6 94 97 118
75 2 2 11 6 64 63 97
76 2 2 11 6 74 68 97
77 2 2 11 6 92 93 94
78 2 2 11 6 123 126 142
79 2 2 11 6 46 91 129
80 2 2 11 6 74 95 124
81 2 2 11 6 110 128 133
82 2 2 11 6 76 122 137
83 2 2 11 6 94 93 95
84 2 2 11 6 94 74 97
85 2 2 11 6 41 57 58
86 2 2 11 6 41 28 57
87 2 2 11 6 27 28 41
88 2 2 11 6 88 50 89
89 2 2 11 6 36 37 42
90 2 2 11 6 98 45 104
91 2 2 11 6 44 19 99
92 2 2 11 6 45 26 104
93 2 2 11 6 57 50 88
94 2 2 11 6 88 89 90
95 2 2 11 6 43 10 100
96 2 2 11 6 27 41 104
97 2 2 11 6 29 50 57
98 2 2 11 6 18 19 44
99 2 2 11 6 9 10 43
100 2 2 11 6 41 58 59
101 2 2 11 6 28 29 57
102 2 2 11 6 26 27 104
103 2 2 11 6 18 44 101
104 2 2 11 6 48 8 103
105 2 2 11 6 9 43 103
106 2 2 11 6 47 17 101
107 2 2 11 6 90 89 91
108 2 2 11 6 20 49 99
109 2 2 11 6 41 59 104
110 2 2 11 6 45 98 113
111 2 2 11 6 8 9 103
112 2 2 11 6 11 51 100
113 2 2 11 6 17 18 101
114 2 2 11 6 90 91 92
115 2 2 11 6 19 20 99
116 2 2 11 6 59 98 104
117 2 2 11 6 10 11 100
118 2 2 11 6 29 30 50
119 2 2 11 6 109 113 115
120 2 2 11 6 20 21 49
121 2 2 11 6 38 39 52
122 2 2 11 6 101 44 102
123 2 2 11 6 109 45 113
124 2 2 11 6 11 12 51
125 2 2 11 6 59 58 60
126 2 2 11 6 23 24 54
127 2 2 11 6 7 8 48
128 2 2 11 6 70 68 74
129 2 2 11 6 32 33 53
130 2 2 11 6 16 17 47
131 2 2 11 6 62 60 63
132 2 2 11 6 66 64 68
133 2 2 11 6 58 57 88
134 2 2 11 6 7 48 105
135 2 2 11 6 80 84 112
136 2 2 11 6 34 35 46
137 2 2 11 6 66 68 69
138 2 2 11 6 69 75 77
139 2 2 11 6 16 47 107
140 2 2 11 6 65 67 71
141 2 2 11 6 25 26 45
142 2 2 11 6 80 83 84
143 2 2 11 6 15 16 107
144 2 2 11 6 71 79 80
145 2 2 11 6 71 72 79
146 2 2 11 6 62 63 64
147 2 2 11 6 6 7 105
148 2 2 11 6 71 67 72
149 2 2 11 6 65 64 66
150 2 2 11 6 65 66 67
151 2 2 11 6 77 75 78
152 2 2 11 6 71 80 108
153 2 2 11 6 62 64 65
154 2 2 11 6 77 78 85
155 2 2 11 6 59 61 98
156 2 2 11 6 62 65 108
157 2 2 11 6 65 71 108
158 2 2 11 6 14 15 56
159 2 2 11 6 78 75 110
160 2 2 11 6 98 61 112
161 2 2 11 6 72 73 81
162 2 2 11 6 69 70 75
163 2 2 11 6 81 82 86
164 2 2 11 6 66 69 111
165 2 2 11 6 61 60 62
166 2 2 11 6 5 6 55
167 2 2 11 6 67 66 111
168 2 2 11 6 72 67 73
169 2 2 11 6 59 60 61
170 2 2 11 6 61 62 108
171 2 2 11 6 54 24 109
172 2 2 11 6 69 68 70
173 2 2 11 6 24 25 109
174 2 2 11 6 56 15 107
175 2 2 11 6 69 77 111
176 2 2 11 6 61 108 112
177 2 2 11 6 80 79 83
178 2 2 11 6 81 73 82
179 2 2 11 6 73 67 111
180 2 2 11 6 55 6 105
181 2 2 11 6 75 76 110
182 2 2 11 6 86 82 87
183 2 2 11 6 25 45 109
184 2 2 11 6 75 70 76
185 2 2 11 6 112 84 113
186 2 2 11 6 55 105 106
187 2 2 11 6 108 80 112
188 2 2 11 6 98 112 113
189 2 2 11 6 111 77 114
190 2 2 11 6 88 90 117
191 2 2 11 6 73 111 114
192 2 2 11 6 113 84 115
193 2 2 11 6 77 85 114
194 2 2 11 6 114 85 116
195 2 2 11 6 82 73 114
196 2 2 11 6 82 114 116
197 2 2 11 6 60 58 117
198 2 2 11 6 54 109 115
199 2 2 11 6 63 60 117
200 2 2 11 6 87 82 116
201 2 2 11 6 58 88 117
202 2 2 11 6 95 96 124
203 2 2 11 6 97 63 118
204 2 2 11 6 90 92 118
205 2 2 11 6 63 117 118
206 2 2 11 6 96 42 125
207 2 2 11 6 117 90 118
208 2 2 11 6 89 50 119
209 2 2 11 6 30 31 119
210 2 2 11 6 21 22 120
211 2 2 11 6 39 40 121
212 2 2 11 6 12 13 123
213 2 2 11 6 76 70 124
214 2 2 11 6 42 37 125
215 2 2 11 6 38 52 125
216 2 2 11 6 93 46 135
217 2 2 11 6 101 102 127
218 2 2 11 6 81 86 127
219 2 2 11 6 50 30 119
220 2 2 11 6 49 21 120
221 2 2 11 6 52 39 121
222 2 2 11 6 51 12 123
223 2 2 11 6 105 48 128
224 2 2 11 6 70 74 124
225 2 2 11 6 53 33 129
226 2 2 11 6 34 46 129
227 2 2 11 6 115 84 134
228 2 2 11 6 36 42 135
229 2 2 11 6 46 35 135
230 2 2 11 6 44 99 136
231 2 2 11 6 3 23 138
232 2 2 11 6 4 32 139
233 2 2 11 6 22 3 138
234 2 2 11 6 2 14 140
235 2 2 11 6 13 2 140
236 2 2 11 6 1 5 141
237 2 2 11 6 40 1 141
238 2 2 11 6 31 4 139
239 2 2 11 6 37 38 125
240 2 2 11 6 56 107 126
241 2 2 11 6 122 106 137
242 2 2 11 6 47 101 127
243 2 2 11 6 110 76 137
244 2 2 11 6 79 102 136
245 2 2 11 6 106 105 128
246 2 2 11 6 83 79 136
247 2 2 11 6 130 116 131
248 2 2 11 6 48 103 133
249 2 2 11 6 131 85 132
250 2 2 11 6 85 78 132
251 2 2 11 6 116 85 131
252 2 2 11 6 33 34 129
253 2 2 11 6 87 116 130
254 2 2 11 6 43 100 131
255 2 2 11 6 100 130 131
256 2 2 11 6 100 51 130
257 2 2 11 6 43 131 132
258 2 2 11 6 103 43 132
259 2 2 11 6 78 110 133
260 2 2 11 6 132 78 133
261 2 2 11 6 103 132 133
262 2 2 11 6 84 83 134
263 2 2 11 6 35 36 135
264 2 2 11 6 102 44 136
265 2 2 11 6 51 123 142
266 2 2 11 6 119 31 139
267 2 2 11 6 121 40 141
268 2 2 11 6 120 22 138
269 2 2 11 6 123 13 140
270 2 2 11 6 23 54 138
271 2 2 11 6 32 53 139
272 2 2 11 6 14 56 140
273 2 2 11 6 5 55 141
274 2 2 11 6 128 110 137
275 2 2 11 6 53 119 139
276 2 2 11 6 54 120 138
277 2 2 11 6 55 121 141
278 2 2 11 6 56 123 140
279 2 2 11 6 106 128 137
280 2 2 11 6 126 87 142
281 2 2 11 6 87 130 142
282 2 2 11 6 130 51 142
$EndElements
